Coordinates
version=1
nRows=6
nColumns=36
inDegrees=yes

Units are S.I. units (second, meters, Newtons, ...)
If the header above contains a line with 'inDegrees', this indicates whether rotational values are in degrees (yes) or radians (no).

endheader
time	pelvis_tilt	pelvis_list	pelvis_rotation	pelvis_tx	pelvis_ty	pelvis_tz	hip_flexion_r	hip_adduction_r	hip_rotation_r	knee_angle_r	knee_angle_r_beta	ankle_angle_r	subtalar_angle_r	mtp_angle_r	hip_flexion_l	hip_adduction_l	hip_rotation_l	knee_angle_l	knee_angle_l_beta	ankle_angle_l	subtalar_angle_l	mtp_angle_l	lumbar_extension	lumbar_bending	lumbar_rotation	arm_flex_r	arm_add_r	arm_rot_r	elbow_flex_r	pro_sup_r	arm_flex_l	arm_add_l	arm_rot_l	elbow_flex_l	pro_sup_l
      4.45000000	    -42.23141823	      3.07639493	    -11.50807518	      0.88710772	      0.66880236	     -0.12169496	     96.01393282	     -2.91335297	     -5.17537135	     87.02982629	      1.51895702	     33.25637442	     -8.04142827	     -7.49999987	     98.85481429	    -20.73941716	      5.03579218	     90.48592368	      1.57927729	     39.80403926	      3.30277765	     -7.49999987	    -20.02409935	     -3.72455059	      3.30267833	     54.07731604	    -17.55066785	     16.95142189	     81.48642453	     83.66876073	     52.32654453	    -35.42401706	     16.21973000	     83.65208268	     82.18586169
      4.46666670	    -41.66654516	      3.00160247	    -11.24399544	      0.87046200	      0.68610719	     -0.12466109	     93.72400634	     -3.24649377	     -5.35491195	     84.03448590	      1.46667846	     31.86913719	     -7.92920957	     -7.49999987	     96.47140596	    -20.21585164	      4.13275209	     87.57530128	      1.52847735	     38.50688635	      3.41653545	     -7.49999987	    -19.97647153	     -3.26560766	      2.13354213	     52.47926405	    -17.00119163	     17.21771744	     78.48137322	     87.43569262	     49.75356163	    -36.31442978	     14.67589090	     80.62506653	     87.35219860
      4.48333330	    -40.61790371	      2.98069378	    -11.19318229	      0.88602146	      0.71172595	     -0.13193205	     90.31531149	     -3.51927802	     -5.55171488	     80.23460906	      1.40035810	     30.36713850	     -7.79067333	     -7.49999987	     92.71588932	    -19.51942810	      3.12771293	     83.85131136	      1.46348147	     37.22016617	      3.30748024	     -7.49999987	    -20.17001154	     -3.07799577	      2.05181345	     47.65488095	    -17.24628190	     15.90085400	     76.28827628	     85.48384591	     44.97610977	    -33.77074593	     12.27427496	     76.50077333	     85.26693802
      4.50000000	    -39.42786873	      2.98843967	    -11.21889229	      0.89009350	      0.72687912	     -0.13348039	     86.59721381	     -3.71649085	     -5.65981172	     76.20281115	      1.32998995	     28.78045944	     -7.60223864	     -7.49999987	     88.44858674	    -18.82288274	      2.10182822	     79.65158565	      1.39018242	     36.17471352	      3.74283347	     -7.49999987	    -20.09305226	     -2.97208609	      1.08850511	     43.47122176	    -16.24145267	     16.21359596	     72.68271877	     86.91017343	     38.80899999	    -32.55024388	      7.92110664	     73.11075239	     88.01632094
      4.51666670	    -38.12387990	      3.12020545	    -11.36300786	      0.89056280	      0.74939374	     -0.13271301	     82.56035333	     -3.69157857	     -5.59950450	     71.68687260	      1.25117196	     26.97670195	     -7.75544833	     -7.49999987	     83.80495937	    -18.26456854	      0.91506477	     74.98099490	      1.30866524	     35.03751688	      4.62912844	     -7.49999987	    -20.20194181	     -3.24276439	      0.98344061	     39.83290999	    -16.18942756	     16.02157042	     68.41415936	     84.49152946	     35.78782391	    -31.10365632	      6.70678136	     68.38197730	     85.59143438
      4.53333330	    -36.45745534	      3.23460266	    -11.50884172	      0.89856772	      0.76440919	     -0.14022728	     78.17074404	     -3.77367981	     -5.47638106	     67.22958339	      1.17337758	     25.11221733	     -8.13079141	     -7.49999987	     78.69684230	    -17.43740363	     -0.09601254	     70.25085492	      1.22610872	     33.38281523	      4.41678180	     -7.49999987	    -20.21094964	     -3.34946011	      0.82726730	     36.04695466	    -16.42569638	     15.88015476	     63.25607898	     84.29359000	     31.97518437	    -28.92093211	      5.17341764	     63.47903014	     85.58333099
